<?xml version="1.0" standalone="no"?>
<svg xmlns:xlink="http://www.w3.org/1999/xlink" id="wave" style="transform:rotate(180deg); transition: 0.3s" viewBox="0 0 1440 180" version="1.1" xmlns="http://www.w3.org/2000/svg"><defs><linearGradient id="sw-gradient-0" x1="0" x2="0" y1="1" y2="0"><stop stop-color="rgba(255, 255, 255, 1)" offset="0%"/><stop stop-color="rgba(255, 255, 255, 1)" offset="100%"/></linearGradient></defs><path style="transform:translate(0, 0px); opacity:1" fill="url(#sw-gradient-0)" d="M0,90L21.8,75C43.6,60,87,30,131,39C174.5,48,218,96,262,102C305.5,108,349,72,393,60C436.4,48,480,60,524,54C567.3,48,611,24,655,30C698.2,36,742,72,785,96C829.1,120,873,132,916,135C960,138,1004,132,1047,108C1090.9,84,1135,42,1178,30C1221.8,18,1265,36,1309,48C1352.7,60,1396,66,1440,60C1483.6,54,1527,36,1571,42C1614.5,48,1658,78,1702,84C1745.5,90,1789,72,1833,63C1876.4,54,1920,54,1964,48C2007.3,42,2051,30,2095,30C2138.2,30,2182,42,2225,54C2269.1,66,2313,78,2356,96C2400,114,2444,138,2487,138C2530.9,138,2575,114,2618,102C2661.8,90,2705,90,2749,78C2792.7,66,2836,42,2880,36C2923.6,30,2967,42,3011,57C3054.5,72,3098,90,3120,99L3141.8,108L3141.8,180L3120,180C3098.2,180,3055,180,3011,180C2967.3,180,2924,180,2880,180C2836.4,180,2793,180,2749,180C2705.5,180,2662,180,2618,180C2574.5,180,2531,180,2487,180C2443.6,180,2400,180,2356,180C2312.7,180,2269,180,2225,180C2181.8,180,2138,180,2095,180C2050.9,180,2007,180,1964,180C1920,180,1876,180,1833,180C1789.1,180,1745,180,1702,180C1658.2,180,1615,180,1571,180C1527.3,180,1484,180,1440,180C1396.4,180,1353,180,1309,180C1265.5,180,1222,180,1178,180C1134.5,180,1091,180,1047,180C1003.6,180,960,180,916,180C872.7,180,829,180,785,180C741.8,180,698,180,655,180C610.9,180,567,180,524,180C480,180,436,180,393,180C349.1,180,305,180,262,180C218.2,180,175,180,131,180C87.3,180,44,180,22,180L0,180Z"/></svg>